<svg viewBox="0 0 198 60" xmlns="http://www.w3.org/2000/svg"><title>logo-banco-pichincha</title><path d="M191.109 46.388c-.715-2.293-1.394-4.485-2.073-6.676a1.154 1.154 0 0 0-.163.014c-.694 2.195-1.394 4.396-2.111 6.662h4.347zm-.658-13.593l1.455 4.603c1.325 4.202 2.65 8.408 3.989 12.61.156.492.299 1.004.567 1.433.285.45.717.805 1.079 1.206.107.116.19.25.284.373-.126.08-.256.226-.387.227a384.3 384.3 0 0 1-6.078 0c-.12 0-.246-.16-.369-.246.119-.09.234-.25.357-.26 1.117-.086 1.493-.56 1.143-1.834-.257-.955-.575-1.894-.838-2.846-.114-.406-.337-.542-.747-.538-1.334.018-2.668-.013-4.004.027-.228.008-.584.229-.653.424a22.01 22.01 0 0 0-.725 2.671c-.237 1.182.162 1.716 1.317 1.992.187.043.333.248.5.378-.17.083-.337.231-.508.232-1.23.021-2.455.024-3.683.007-.178-.007-.36-.146-.535-.222.126-.15.245-.298.371-.448.415-.476 1-.887 1.213-1.442.765-2.003 1.444-4.046 2.106-6.09 1.272-3.907 2.507-7.826 3.765-11.736.058-.177.138-.344.205-.517.063 0 .116-.004.176-.004zm-18.994 14.832c0 1.077-.012 2.155 0 3.23.018 1.235.416 1.672 1.646 1.887.13.024.24.168.36.257-.123.086-.245.244-.377.244a447.9 447.9 0 0 1-6.659.002c-.131 0-.265-.143-.398-.218.133-.099.256-.26.402-.285 1.13-.18 1.513-.549 1.516-1.691.017-5.259.015-10.511 0-15.765 0-1.032-.405-1.44-1.444-1.637-.17-.027-.314-.19-.468-.293.157-.073.317-.211.48-.212 2.153-.012 4.311-.012 6.466.003.156.001.313.147.473.223-.142.097-.268.247-.423.276-1.153.23-1.546.623-1.563 1.76-.023 2.108-.007 4.217-.018 6.33-.005.378.114.542.515.538 1.36-.016 2.717-.016 4.072-.002.39.002.545-.136.54-.524-.034-2.24-.044-4.48-.098-6.717-.019-.783-.492-1.193-1.368-1.37-.193-.038-.359-.2-.531-.303.199-.075.4-.214.596-.214 2.07-.02 4.141-.02 6.21.003.201 0 .401.144.603.223-.18.105-.349.269-.54.3-.924.175-1.31.544-1.425 1.478-.035.299-.028.604-.028.904-.003 4.718-.003 9.433-.003 14.148 0 .346-.004.69.031 1.031.095.932.549 1.366 1.48 1.506.17.027.326.173.49.266-.164.082-.333.242-.498.242-2.136.02-4.266.02-6.403.007-.172-.007-.343-.151-.518-.232.154-.098.307-.256.47-.283.984-.145 1.428-.579 1.448-1.567.044-2.302.05-4.607.089-6.91.01-.53-.17-.72-.71-.704a67.498 67.498 0 0 1-3.754 0c-.557-.018-.69.187-.673.708.03 1.12.008 2.242.008 3.361h.004zm-7.213-14.88v6.839c-.065.016-.132.035-.2.051-.079-.207-.185-.407-.24-.627-.301-1.22-.697-2.395-1.505-3.388-1.81-2.24-4.464-2.146-6.133.2-.927 1.307-1.305 2.812-1.498 4.351-.346 2.776-.267 5.541.472 8.258.167.618.406 1.23.706 1.794 1.273 2.366 4.137 2.863 6.116 1.033.75-.694 1.367-1.528 2.074-2.333.034.692.115 1.318-.35 1.98-2.886 4.104-8.385 3.344-10.909-.11-3.166-4.327-2.623-12.25 1.148-16.024 2.199-2.198 4.764-2.636 7.559-1.289.33.158.651.33.984.481.662.298 1.066.12 1.3-.558.083-.228.155-.46.226-.69.082.012.162.017.25.031m-17.624 12.56v-1.085c-.006-2.67-.01-5.34-.027-8.012 0-.363-.05-.727-.128-1.083-.156-.77-.605-1.257-1.406-1.405-.178-.033-.328-.2-.492-.305.186-.093.37-.256.555-.26a86.278 86.278 0 0 1 3.627-.006c.174.001.346.154.52.238-.135.129-.26.336-.418.373-.872.19-1.261.771-1.347 1.601a17.106 17.106 0 0 0-.111 1.734c-.01 5.231-.005 10.467-.01 15.698 0 .272-.022.54-.163.858-1.246-1.709-2.238-3.56-3.305-5.36-1.098-1.848-2.165-3.723-3.247-5.582-1.064-1.835-2.137-3.666-3.333-5.46-.011.2-.04.402-.04.604-.002 3.923-.002 7.842.005 11.76 0 .49.058.988.136 1.47.147.908.683 1.458 1.595 1.642.156.034.291.171.434.256-.157.096-.319.264-.479.265-1.36.021-2.714.02-4.074 0-.153 0-.299-.149-.448-.232.128-.104.242-.267.39-.311 1.175-.347 1.606-.852 1.641-2.14.043-1.485.039-2.967.04-4.457.003-3.312.003-6.633 0-9.95-.001-1.089-.715-2.062-1.746-2.436-.13-.053-.223-.21-.335-.32.147-.089.293-.247.443-.25 1.379-.023 2.758-.04 4.137.009.262.011.62.277.762.525 2.131 3.69 4.235 7.4 6.342 11.103.107.187.222.364.334.544.048-.009.1-.02.148-.025m-18.52-2.174v-7.62c-.008-1.187-.363-1.606-1.516-1.858-.15-.03-.279-.185-.416-.285.155-.077.31-.22.468-.22 2.131-.016 4.262-.023 6.399 0 .166 0 .334.17.498.258-.152.087-.298.22-.458.255-1.1.222-1.47.632-1.474 1.75-.01 5.187-.01 10.376 0 15.565.004 1.145.405 1.573 1.534 1.766.138.025.263.189.39.288-.132.076-.264.216-.396.222-2.172.009-4.354.009-6.534-.006-.143 0-.289-.162-.43-.25.14-.086.272-.232.426-.254 1.1-.17 1.494-.615 1.497-1.797.017-2.605.004-5.21.011-7.814m-13.424 4.435c0 1.12-.034 2.243.01 3.36.047 1.23.435 1.616 1.644 1.816.13.024.243.168.363.253-.12.085-.245.249-.366.249a487.6 487.6 0 0 1-6.728 0c-.124 0-.243-.16-.364-.248.118-.086.229-.229.36-.254 1.198-.203 1.463-.46 1.588-1.636.053-.492.069-.99.069-1.486.005-4.286.005-8.573 0-12.857a17.337 17.337 0 0 0-.087-1.609c-.083-.961-.419-1.293-1.389-1.487-.193-.036-.358-.196-.538-.3.2-.076.393-.222.592-.224 2.092-.018 4.178-.018 6.272 0 .198.004.395.148.59.228-.18.105-.35.264-.54.299-.984.185-1.355.454-1.41 1.46-.089 1.74-.074 3.485-.082 5.228-.004.613-.145 1.43.179 1.782.286.308 1.136.12 1.734.128.903.006 1.808-.009 2.715.004.343.002.52-.102.517-.477-.035-2.217-.027-4.436-.097-6.649-.03-.974-.42-1.291-1.39-1.48-.192-.032-.362-.193-.541-.299.2-.076.398-.222.596-.224 2.09-.018 4.183-.018 6.274.004.192.001.387.153.583.237-.188.096-.365.243-.565.28-.93.176-1.26.481-1.379 1.43a11.33 11.33 0 0 0-.085 1.543c-.003 4.502 0 9.004.004 13.505 0 .364.012.732.058 1.094.143 1.027.503 1.361 1.529 1.501.158.021.296.162.442.246-.16.093-.317.263-.48.263a418.31 418.31 0 0 1-6.532 0c-.15 0-.3-.146-.445-.228.135-.094.257-.25.402-.273 1.082-.162 1.473-.456 1.533-1.555.093-1.782.067-3.57.089-5.357.005-.583-.007-1.16.004-1.744.004-.33-.087-.529-.47-.524-1.405.01-2.805.01-4.21 0-.43-.005-.472.236-.472.58.007 1.139.003 2.278.003 3.42h.02zm-7.219-14.818v6.846c-.064.016-.126.029-.19.044-.084-.213-.174-.426-.251-.644-.321-.862-.543-1.78-.973-2.585-.774-1.439-1.924-2.476-3.685-2.392-1.735.083-2.736 1.243-3.473 2.652-.752 1.46-1.002 3.063-1.115 4.68-.196 2.771-.043 5.512.95 8.143 1.177 3.138 4.465 3.829 6.826 1.443.583-.591 1.073-1.28 1.682-2.016.039.698.16 1.279-.246 1.878-3.048 4.424-8.849 3.392-11.232-.388-2.771-4.388-2.367-11.214.978-15.167 1.365-1.619 3.089-2.646 5.28-2.516.816.046 1.623.37 2.418.63.446.145.847.418 1.278.613.654.296 1.058.106 1.299-.577.08-.234.18-.465.277-.694.06.018.114.037.177.05M90.474 43.24c0 2.386-.003 4.776.007 7.165 0 .279.016.56.055.837.145 1.02.507 1.353 1.533 1.498.153.023.288.167.43.258-.148.089-.285.25-.433.25-2.194.015-4.39.015-6.592-.002-.14 0-.289-.156-.431-.24.135-.091.26-.24.41-.263 1.062-.153 1.395-.442 1.533-1.488.067-.508.077-1.03.079-1.542.004-4.415.004-8.825-.002-13.241 0-.45-.027-.903-.079-1.35-.104-.951-.46-1.296-1.418-1.462-.186-.032-.354-.16-.523-.244.178-.094.365-.266.548-.266 2.133-.022 4.267-.022 6.4 0 .168 0 .34.16.503.247-.152.087-.289.227-.446.253-1.106.21-1.441.468-1.505 1.584-.089 1.612-.06 3.227-.075 4.84-.008 1.056-.003 2.107-.003 3.166h.009zm-13.34-4.6c0 1.267.014 2.538-.006 3.806-.01.451.16.61.606.596 1.046-.023 1.949-.66 2.284-1.778a8.967 8.967 0 0 0 .02-5.215c-.31-1.076-1.138-1.681-2.226-1.777-.472-.04-.706.078-.69.624.032 1.246.011 2.497.011 3.744m-1.306-5.579c1.353.087 2.723.067 4.052.281 2.283.361 3.746 2.001 3.965 4.3.139 1.548-.02 3.053-.918 4.395-.948 1.424-2.367 1.917-3.983 2.036-.28.022-.56.018-.843.022-.963.02-.963.02-.963.954 0 1.826 0 3.658.017 5.487.003.384.036.78.129 1.154.173.714.733.942 1.401 1.039.154.023.292.163.44.252-.159.093-.32.266-.482.266-2.09.021-4.177.021-6.266.007-.165-.007-.334-.167-.498-.26.142-.09.279-.233.43-.265 1.074-.213 1.36-.483 1.483-1.55a14.91 14.91 0 0 0 .076-1.612c.004-4.282.004-8.565-.003-12.848 0-.56-.035-1.118-.1-1.673-.096-.885-.421-1.198-1.296-1.323-.065-.01-.142.006-.19-.028-.141-.095-.268-.21-.4-.313.154-.08.304-.226.46-.227 1.16-.02 2.323-.013 3.488-.013v-.08m63.783-14.866c.03.617.055 1.699.17 2.766.17 1.566.458 3.108 1.237 4.515 1.203 2.155 3.795 2.22 5.024.081a8.608 8.608 0 0 0 .93-2.392c.758-3.357.673-6.749.205-10.137-.187-1.348-.555-2.662-1.466-3.738-1.115-1.312-2.955-1.396-4.07-.093-.542.632-.952 1.435-1.236 2.23-.723 2.034-.751 4.178-.794 6.768m11.8-.538c-.02 2.89-.673 5.59-2.486 7.915-2.857 3.66-8.347 3.475-11.029-.346-1.351-1.924-1.997-4.089-2.148-6.403-.155-2.414.088-4.78 1.188-6.982.951-1.898 2.197-3.608 4.34-4.174 3.977-1.054 7.119.236 9.04 4.399.82 1.77 1.112 3.653 1.094 5.591M133.486 7.283v6.752c-.06.023-.125.047-.19.068-.086-.22-.211-.433-.265-.662-.281-1.188-.7-2.304-1.463-3.275-1.762-2.241-4.592-2.213-6.32.064-1.042 1.371-1.413 2.991-1.63 4.637a20.825 20.825 0 0 0 .49 8.003c.13.497.319.985.527 1.455 1.396 3.164 4.963 3.12 6.95 1.06.566-.583 1.053-1.237 1.673-1.97.03.721.154 1.298-.273 1.896-3.117 4.4-9.016 3.353-11.42-.249-1.696-2.533-2.21-5.348-1.95-8.32.212-2.446.977-4.727 2.54-6.659 1.545-1.91 3.49-3.13 6.044-2.819 1.018.126 2.023.562 2.981.975 1.357.583 1.44.59 1.961-.767.034-.086.117-.154.173-.234.057.016.116.03.172.045m-27.715 4.414c-.01.209-.03.416-.03.621-.004 3.831-.004 7.668.004 11.498 0 .517.043 1.034.112 1.543.143 1.086.639 1.593 1.692 1.845.168.04.31.202.465.312-.16.076-.321.213-.48.213-1.4.02-2.798.022-4.202.005-.156-.005-.308-.153-.469-.233.131-.111.245-.311.38-.323 1.179-.116 1.621-1.036 1.689-2.031a19.2 19.2 0 0 0 .046-1.36l.001-13.113c0-1.092-.7-2.063-1.735-2.467-.144-.058-.25-.23-.373-.347.155-.076.302-.222.454-.226 1.422-.017 2.851.009 4.273-.023.483-.008.617.32.8.627 2.067 3.525 4.137 7.057 6.205 10.588.21.361.426.718.76 1.027.016-.16.034-.323.034-.486 0-2.692.006-5.385-.007-8.076a9.826 9.826 0 0 0-.13-1.478c-.141-.902-.65-1.466-1.578-1.643-.158-.031-.29-.218-.43-.334.158-.07.31-.202.473-.205 1.296-.014 2.588-.017 3.88.003.166.004.33.169.493.259-.129.122-.234.305-.384.36-1.153.413-1.5.874-1.509 2.148-.013 3.682-.02 7.367-.028 11.048-.004 1.985.004 3.965-.004 5.945 0 .248-.038.493-.177.79-1.843-2.665-3.438-5.46-5.1-8.213-1.669-2.76-3.317-5.532-4.977-8.298l-.148.024m-15.005 9.198h4.488c-.729-2.278-1.43-4.486-2.133-6.69a1.757 1.757 0 0 0-.164.012c-.72 2.19-1.437 4.376-2.191 6.678M94.553 7.29c.103.301.22.597.319.897 1.804 5.543 3.608 11.086 5.418 16.622.17.508.37 1.024.653 1.468.223.34.61.573.92.854.116.1.227.21.343.318-.149.09-.29.252-.439.255-1.637.029-3.273.038-4.91.045-.431 0-.864.015-1.292-.025-.155-.012-.29-.17-.44-.26.13-.083.25-.21.396-.243 1.313-.308 1.507-.616 1.122-1.94-.271-.927-.584-1.842-.849-2.776-.104-.366-.284-.525-.685-.522-1.417.018-2.839-.01-4.265.027-.203.005-.523.228-.586.42-.293.853-.554 1.72-.756 2.6-.276 1.245.16 1.845 1.406 2.114.157.037.292.226.435.346-.154.084-.309.238-.46.24-1.31.016-2.627.007-3.945-.014-.135 0-.268-.136-.407-.206.082-.129.139-.325.255-.376.784-.326 1.209-.967 1.473-1.71a269.917 269.917 0 0 0 2.069-5.972c1.292-3.876 2.575-7.759 3.857-11.635.058-.178.138-.347.21-.519.05-.004.103-.004.158-.008M77.356 21.835h.015c0 1.201-.032 2.411.014 3.611.035.873.482 1.22 1.348 1.184 1.166-.047 2.28-.901 2.604-2.244.237-.988.348-2.052.253-3.056-.212-2.262-1.467-3.42-3.49-3.494-.543-.017-.776.111-.755.708.045 1.093.01 2.194.01 3.29m0-9.167v1.682c0 .58.023 1.164 0 1.744-.022.459.168.588.61.582 1.445-.024 2.674-.874 2.976-2.306a9.094 9.094 0 0 0 .138-2.813c-.189-1.783-1.336-2.728-3.067-2.785-.534-.017-.67.181-.656.667.02 1.076 0 2.154 0 3.23m4.09 4.39c.686.328 1.307.568 1.873.907 1.79 1.07 2.337 2.781 2.156 4.712-.29 3.079-2.286 4.907-5.38 4.998-2.546.074-5.084.059-7.63.06-.194 0-.39-.158-.587-.241.185-.109.35-.285.542-.316 1.009-.175 1.447-.6 1.451-1.634.016-5.252.016-10.503 0-15.757-.004-1.02-.432-1.41-1.551-1.63-.158-.031-.297-.166-.444-.253.163-.094.319-.27.478-.27 2.756.023 5.514 0 8.268.13 2.354.112 3.946 1.815 4.14 4.176.215 2.516-.624 3.911-2.945 4.928-.1.04-.194.094-.372.19M50.725 0c.008 2.669.026 5.337.026 8.006 0 16.936 0 33.876-.002 50.812 0 .256-.016.515-.024.774H.007C0 57.31 0 55.025 0 52.748.001 35.166.001 17.583.007 0h50.718zM23.329 10.562c-3.394.41-6.475 1.476-9.248 3.354-2.768 1.865-4.956 4.266-6.525 7.21a19.38 19.38 0 0 0-2.316 9.49c.045 4.314 1.34 8.218 3.932 11.66 3.533 4.697 8.31 7.303 14.182 8.14-.328.385-.664.733-1.07.957-.367.203-.812.275-1.225.39-.61.173-.309.672-.334 1.027-.002.122.276.376.424.376 2.89.024 5.781.02 8.67.007.145 0 .381-.134.425-.261.237-.672-.025-1.041-.71-1.248a6.12 6.12 0 0 1-1.394-.633c-.225-.134-.356-.422-.598-.73 5.014-.64 9.18-2.662 12.555-6.218 3.38-3.561 5.194-7.832 5.439-12.725.209-4.105-.788-7.951-3.011-11.426-3.473-5.422-8.486-8.464-14.84-9.36.294-.823.793-1.237 2.023-1.432.772-.126.538-.628.562-1.052.018-.528-.4-.413-.696-.413-1.938-.012-3.878-.007-5.82-.007-.842 0-1.682.01-2.523-.001-.375-.004-.522.12-.545.52-.04.584.097.9.743.997.8.117 1.51.452 1.9 1.378zm3.95 38.013c-.03-.478-.077-.895-.077-1.316-.012-8.916-.022-17.835-.029-26.753 0-2.456.017-4.911.04-7.366.009-.743.063-.77.8-.625 5.31 1.045 8.95 4.244 11.338 8.945 3.681 7.254 2.457 16.51-2.882 22.26-2.455 2.647-5.436 4.322-9.19 4.855m-3.498-36.1c.03 11.99.03 23.965-.003 36.063-.619-.11-1.101-.169-1.57-.292-4.903-1.319-8.257-4.478-10.449-8.94-3.532-7.18-2.352-16.11 2.863-21.921 2.345-2.612 5.244-4.29 8.723-4.909.082-.014.17 0 .436 0" fill="#59595B" fill-rule="evenodd"/></svg>